<svg width="15" height="13" xmlns="http://www.w3.org/2000/svg">
    <g stroke="#FFC542" stroke-width=".856" fill="none" fill-rule="evenodd" opacity=".9" stroke-linecap="round" stroke-linejoin="round">
        <path d="m13.233 9.809.762-6.231a.488.488 0 0 0-.174-.45.406.406 0 0 0-.448-.039l-2.474 2.04a.41.41 0 0 1-.336.101.431.431 0 0 1-.296-.2L7.826 1.16A.419.419 0 0 0 7.5 1a.419.419 0 0 0-.326.16L4.733 5.03a.431.431 0 0 1-.296.2.41.41 0 0 1-.336-.102L1.627 3.09a.406.406 0 0 0-.448.04.488.488 0 0 0-.174.449l.762 6.23h11.466z" fill="#FFC542"/>
        <path d="M1.867 11.687h11.266"/>
    </g>
</svg>
