<?xml version="1.0" encoding="UTF-8"?>
<svg width="34px" height="34px" viewBox="0 0 34 34" version="1.1" xmlns="http://www.w3.org/2000/svg" xmlns:xlink="http://www.w3.org/1999/xlink">
    <title>Group 33@2x</title>
    <g id="Comparison" stroke="none" stroke-width="1" fill="none" fill-rule="evenodd">
        <g id="XY_Fundamentals-GrowthScores-Mobile" transform="translate(-171.000000, -229.000000)">
            <g id="Group-33" transform="translate(172.000000, 230.000000)">
                <g id="Group-28" fill="#FFFFFF">
                    <path d="M40,24 C40,15.163444 32.836556,8 24,8 C15.163444,8 8,15.163444 8,24" id="Mask" stroke="#00D684" transform="translate(24.000000, 16.000000) rotate(90.000000) translate(-24.000000, -16.000000) "></path>
                    <path d="M24,24 C24,15.163444 16.836556,8 8,8 C-0.836555997,8 -8,15.163444 -8,24" id="Mask" stroke="#006AFF" transform="translate(8.000000, 16.000000) scale(-1, 1) rotate(90.000000) translate(-8.000000, -16.000000) "></path>
                </g>
                <path d="M12.936,20.002 L16.44,11.296 L14.982,11.296 C14.83,11.296 14.703,11.337 14.601,11.419 C14.499,11.501 14.428,11.592 14.388,11.692 L12.516,16.708 C12.444,16.896 12.377,17.101 12.315,17.323 C12.253,17.545 12.196,17.778 12.144,18.022 C12.084,17.778 12.019,17.545 11.949,17.323 C11.879,17.101 11.808,16.896 11.736,16.708 L9.852,11.692 C9.804,11.576 9.731,11.481 9.633,11.407 C9.535,11.333 9.408,11.296 9.252,11.296 L7.8,11.296 L11.304,20.002 L12.936,20.002 Z" id="VS" fill="#7D7F85" fill-rule="nonzero"></path>
                <path d="M19.362,20.098 C19.846,20.098 20.279,20.024 20.661,19.876 C21.043,19.728 21.364,19.525 21.624,19.267 C21.884,19.009 22.083,18.707 22.221,18.361 C22.359,18.015 22.428,17.644 22.428,17.248 C22.428,16.884 22.371,16.575 22.257,16.321 C22.143,16.067 21.993,15.852 21.807,15.676 C21.621,15.5 21.41,15.354 21.174,15.238 C20.938,15.122 20.696,15.021 20.448,14.935 C20.2,14.849 19.958,14.77 19.722,14.698 C19.486,14.626 19.275,14.544 19.089,14.452 C18.903,14.36 18.753,14.251 18.639,14.125 C18.525,13.999 18.468,13.84 18.468,13.648 C18.468,13.348 18.572,13.105 18.78,12.919 C18.988,12.733 19.3,12.64 19.716,12.64 C19.952,12.64 20.158,12.671 20.334,12.733 C20.51,12.795 20.666,12.862 20.802,12.934 C20.938,13.006 21.057,13.073 21.159,13.135 C21.261,13.197 21.356,13.228 21.444,13.228 C21.536,13.228 21.611,13.207 21.669,13.165 C21.727,13.123 21.784,13.056 21.84,12.964 L21.84,12.964 L22.284,12.118 C21.976,11.83 21.599,11.605 21.153,11.443 C20.707,11.281 20.222,11.2 19.698,11.2 C19.23,11.2 18.815,11.272 18.453,11.416 C18.091,11.56 17.786,11.75 17.538,11.986 C17.29,12.222 17.102,12.492 16.974,12.796 C16.846,13.1 16.782,13.414 16.782,13.738 C16.782,14.142 16.839,14.48 16.953,14.752 C17.067,15.024 17.216,15.252 17.4,15.436 C17.584,15.62 17.794,15.768 18.03,15.88 C18.266,15.992 18.508,16.088 18.756,16.168 C19.004,16.248 19.246,16.321 19.482,16.387 C19.718,16.453 19.928,16.532 20.112,16.624 C20.296,16.716 20.445,16.83 20.559,16.966 C20.673,17.102 20.73,17.28 20.73,17.5 C20.73,17.88 20.615,18.166 20.385,18.358 C20.155,18.55 19.83,18.646 19.41,18.646 C19.122,18.646 18.875,18.606 18.669,18.526 C18.463,18.446 18.282,18.358 18.126,18.262 C17.97,18.166 17.832,18.078 17.712,17.998 C17.592,17.918 17.478,17.878 17.37,17.878 C17.29,17.878 17.214,17.899 17.142,17.941 C17.07,17.983 17.012,18.036 16.968,18.1 L16.968,18.1 L16.44,18.952 C16.608,19.124 16.804,19.28 17.028,19.42 C17.252,19.56 17.491,19.68 17.745,19.78 C17.999,19.88 18.263,19.958 18.537,20.014 C18.811,20.07 19.086,20.098 19.362,20.098 Z" id="VS" fill="#7D7F85"></path>
            </g>
        </g>
    </g>
</svg>