<svg version="1.2" xmlns="http://www.w3.org/2000/svg" viewBox="0 0 512 512" width="512" height="512">
	<title>svg-svg</title>
	<style>
		.s0 { fill: #ffc542 } 
	</style>
	<path id="Layer" fill-rule="evenodd" class="s0" d="m254.8 0.1c10.9-0.1 19 0.4 24.9 1.5c4.9 0.8 12.8 2.5 17.8 3.6c4.9 1.1 13.7 3.8 19.5 6c5.8 2.1 14.8 6.2 20 8.9c5.2 2.8 13.1 7.4 17.5 10.3c4.4 3 12 8.9 17 13.3c4.9 4.4 12.5 11.9 16.9 16.9c4.3 4.9 10.2 12.5 13.2 16.9c2.9 4.4 7.5 12.3 10.3 17.5c2.7 5.2 6.6 13.8 8.6 19c2 5.2 4.7 13.8 5.9 19c1.3 5.2 3 13.3 3.7 18c0.7 4.7 1.3 15.9 1.3 25c0 9.1-0.6 20.3-1.3 25c-0.7 4.7-2.4 12.8-3.7 18c-1.2 5.2-3.9 13.8-5.9 19c-2 5.2-5.9 13.8-8.6 19c-2.8 5.2-7.4 13.1-10.3 17.5c-3 4.4-8.9 12-13.2 16.9c-4.4 5-12 12.5-16.9 16.9c-5 4.4-12.6 10.3-17 13.3c-4.4 2.9-12.3 7.5-17.5 10.3c-5.2 2.7-13.8 6.6-19 8.6c-5.2 2-13.8 4.7-19 5.9c-5.2 1.3-13.3 3-18 3.7c-4.7 0.7-15.9 1.3-25 1.3c-9.1 0-20.3-0.6-25-1.3c-4.7-0.7-12.8-2.4-18-3.7c-5.2-1.3-13.2-3.7-17.8-5.4c-4.5-1.6-11.9-4.9-16.5-7.1c-4.5-2.3-11.8-6.4-16.2-9.2c-4.4-2.7-10.5-6.8-13.5-9.2c-3-2.3-9.5-8-14.4-12.6c-4.9-4.6-11.6-11.8-14.9-15.9c-3.3-4.1-8.4-11.2-11.4-15.7c-2.9-4.6-7.3-12.4-9.8-17.3c-2.5-5-5.9-12.7-7.5-17.3c-1.7-4.5-4.1-12.5-5.4-17.7c-1.3-5.2-3-13.3-3.7-18c-0.7-4.7-1.3-15.9-1.3-25c0-9.1 0.6-20.3 1.3-25c0.7-4.7 2.4-12.8 3.7-18c1.3-5.2 3.7-13.2 5.4-17.8c1.6-4.5 5-12.3 7.5-17.2c2.5-5 6.9-12.7 9.8-17.3c3-4.5 8.1-11.6 11.4-15.7c3.3-4.1 10-11.3 14.9-15.9c4.9-4.6 11.4-10.3 14.4-12.6c3-2.4 9.1-6.5 13.5-9.2c4.4-2.8 11.8-6.9 16.5-9.3c4.7-2.3 12.5-5.7 17.5-7.5c4.9-1.8 13.3-4.2 18.5-5.4c5.2-1.2 12.6-2.7 16.5-3.5c3.9-0.7 14.3-1.4 23.2-1.5zm-12.5 72.3c-1.6 2.3-7.8 12.4-13.8 22.5c-6 10.1-11.1 18.5-11.4 18.7c-0.3 0.2-10.9 3-23.5 6.4c-12.7 3.3-24.4 6.8-26 7.8c-1.7 1-4 3.8-5.3 6.2c-1.2 2.5-2.2 5.7-2.2 7.3c0 1.5 0.7 4.2 1.5 6c0.8 1.7 8.5 12 17.1 22.7l15.6 19.5c-0.9 8.5-1.7 18.9-2.3 28.5c-0.6 9.6-1 20.1-0.8 23.2c0.3 4.9 0.9 6.2 3.9 9.3c1.9 1.9 5.1 4 7 4.6c1.9 0.7 4.8 0.9 6.5 0.6c1.6-0.2 12.7-4.6 24.5-9.6c11.8-5 22.2-9.1 23-9.1c0.8 0 11.2 4.1 23 9.1c11.8 5 22.8 9.4 24.5 9.6c1.6 0.3 4.6 0.1 6.5-0.6c1.9-0.6 5.1-2.7 7-4.6c3-3.1 3.6-4.4 3.9-9.3c0.2-3.1-0.2-13.6-0.8-23.2c-0.6-9.6-1.4-20-1.7-23l-0.6-5.5c24.2-30.2 31.9-40.5 32.7-42.2c0.8-1.8 1.5-4.5 1.5-6c0-1.6-1-4.8-2.2-7.3c-1.3-2.4-3.7-5.2-5.3-6.2c-1.7-1-13.4-4.5-26-7.8c-12.7-3.3-23.5-6.6-24.1-7.2c-0.6-0.7-6.8-10.8-13.6-22.3c-7.8-13.1-13.6-21.7-15.4-22.9c-1.8-1.2-5.1-2.1-8.4-2.3c-3.8-0.3-6.5 0.2-8.8 1.3c-1.8 0.9-4.5 3.5-6 5.8zm-166.1 208.6c0.5 0 2.1 2.1 3.6 4.8c1.5 2.6 6.1 9.2 10.2 14.7c4.1 5.5 12.9 15.4 19.5 22.1c6.7 6.6 15.7 14.7 20.1 18.1c4.4 3.3 11.1 8 15 10.5c3.8 2.5 11.5 6.9 17 9.7c5.5 2.8 14 6.7 19 8.6c4.9 2 13.5 4.8 19 6.4c5.5 1.6 14.7 3.6 20.5 4.6c5.8 0.9 12.2 2 18 3l-34 59c-18.8 32.4-35 60.3-36.1 62c-1.2 1.6-3.6 4-5.5 5.3c-2.3 1.5-4.9 2.2-8.2 2.2c-3.9 0-5.4-0.5-9-3.5c-2.6-2.2-4.7-5.1-5.7-7.7c-0.8-2.4-6.6-23.9-13-47.8c-6.3-23.9-11.8-44.2-12.3-45.1c-0.6-1.4-7 0.1-48.2 11.2c-26.1 7.1-48.6 12.9-50 12.9c-1.4 0-4.5-1-7-2.2c-3-1.5-5.2-3.6-6.7-6.3c-1.3-2.2-2.3-5.5-2.3-7.2c0-1.8 0.8-5 1.8-7c1-2.1 17.9-31.8 37.6-66c19.7-34.3 36.2-62.3 36.7-62.3zm360 0.2c0.5 0.2 17.2 28.6 37.2 63.3c20 34.6 36.9 64.6 37.7 66.5c0.7 2 1 5 0.6 7c-0.3 1.9-1.5 5-2.6 6.8c-1.1 1.8-3.9 4.1-6.3 5.2c-2.3 1.1-5.3 2-6.7 2c-1.4 0-23.9-5.8-50-12.9c-31.8-8.6-47.7-12.4-48.1-11.7c-0.4 0.6-6.2 21.8-12.9 47.1c-6.7 25.3-12.8 47.1-13.5 48.5c-0.7 1.4-3 4-5.1 5.8c-3.2 2.6-4.7 3.2-8.7 3.2c-3.2 0-5.8-0.7-8.1-2.2c-1.9-1.3-4.3-3.7-5.5-5.3c-1.1-1.7-17.3-29.6-70.1-121l3.7-0.6c2.1-0.4 8.5-1.5 14.3-2.4c5.8-1 15-3 20.5-4.6c5.5-1.6 14-4.4 19-6.4c4.9-1.9 13.5-5.8 19-8.6c5.5-2.8 13.1-7.2 17-9.7c3.8-2.5 10.6-7.2 15-10.5c4.4-3.4 13.4-11.5 20.1-18.1c6.6-6.7 15.4-16.6 19.5-22.1c4.1-5.5 8.7-12.2 10.3-14.8c1.5-2.7 3.2-4.7 3.7-4.5z" />
</svg>