<svg width="260" height="52" viewBox="0 0 260 52" fill="none" xmlns="http://www.w3.org/2000/svg">
<rect width="260" height="52" rx="8" fill="#FFE5E5"/>
<g clip-path="url(#clip0_1159_26243)">
<path d="M37.25 37.123C40.5637 37.123 43.25 34.4368 43.25 31.123C43.25 27.8093 40.5637 25.123 37.25 25.123C33.9363 25.123 31.25 27.8093 31.25 31.123C31.25 34.4368 33.9363 37.123 37.25 37.123Z" stroke="#FC5A5A" stroke-width="1.5" stroke-linecap="round" stroke-linejoin="round"/>
<path d="M35.1289 29.0017L39.3715 33.2443" stroke="#FC5A5A" stroke-width="1.5" stroke-linecap="round" stroke-linejoin="round"/>
<path d="M35.1289 33.2444L39.3715 29.0017" stroke="#FC5A5A" stroke-width="1.5" stroke-linecap="round" stroke-linejoin="round"/>
<path d="M25.25 16.123H40.25" stroke="#FC5A5A" stroke-width="1.5" stroke-linecap="round" stroke-linejoin="round"/>
<path d="M25.25 22.123H40.25" stroke="#FC5A5A" stroke-width="1.5" stroke-linecap="round" stroke-linejoin="round"/>
<path d="M25.25 28.123H28.25" stroke="#FC5A5A" stroke-width="1.5" stroke-linecap="round" stroke-linejoin="round"/>
<path d="M21.125 22.498C20.9179 22.498 20.75 22.3301 20.75 22.123C20.75 21.9159 20.9179 21.748 21.125 21.748" stroke="#FC5A5A" stroke-width="1.5"/>
<path d="M21.125 22.498C21.3321 22.498 21.5 22.3301 21.5 22.123C21.5 21.9159 21.3321 21.748 21.125 21.748" stroke="#FC5A5A" stroke-width="1.5"/>
<path d="M21.125 28.498C20.9179 28.498 20.75 28.3302 20.75 28.123C20.75 27.9159 20.9179 27.748 21.125 27.748" stroke="#FC5A5A" stroke-width="1.5"/>
<path d="M21.125 28.498C21.3321 28.498 21.5 28.3302 21.5 28.123C21.5 27.9159 21.3321 27.748 21.125 27.748" stroke="#FC5A5A" stroke-width="1.5"/>
<path d="M21.125 16.498C20.9179 16.498 20.75 16.3301 20.75 16.123C20.75 15.9159 20.9179 15.748 21.125 15.748" stroke="#FC5A5A" stroke-width="1.5"/>
<path d="M21.125 16.498C21.3321 16.498 21.5 16.3301 21.5 16.123C21.5 15.9159 21.3321 15.748 21.125 15.748" stroke="#FC5A5A" stroke-width="1.5"/>
</g>
<path d="M59.77 34H57.83V19.67H59.77V34ZM68.6975 25.54C68.6175 25.6867 68.4942 25.76 68.3275 25.76C68.2275 25.76 68.1142 25.7233 67.9875 25.65C67.8608 25.5767 67.7042 25.4967 67.5175 25.41C67.3375 25.3167 67.1208 25.2333 66.8675 25.16C66.6142 25.08 66.3142 25.04 65.9675 25.04C65.6675 25.04 65.3975 25.08 65.1575 25.16C64.9175 25.2333 64.7108 25.3367 64.5375 25.47C64.3708 25.6033 64.2408 25.76 64.1475 25.94C64.0608 26.1133 64.0175 26.3033 64.0175 26.51C64.0175 26.77 64.0908 26.9867 64.2375 27.16C64.3908 27.3333 64.5908 27.4833 64.8375 27.61C65.0842 27.7367 65.3642 27.85 65.6775 27.95C65.9908 28.0433 66.3108 28.1467 66.6375 28.26C66.9708 28.3667 67.2942 28.4867 67.6075 28.62C67.9208 28.7533 68.2008 28.92 68.4475 29.12C68.6942 29.32 68.8908 29.5667 69.0375 29.86C69.1908 30.1467 69.2675 30.4933 69.2675 30.9C69.2675 31.3667 69.1842 31.8 69.0175 32.2C68.8508 32.5933 68.6042 32.9367 68.2775 33.23C67.9508 33.5167 67.5508 33.7433 67.0775 33.91C66.6042 34.0767 66.0575 34.16 65.4375 34.16C64.7308 34.16 64.0908 34.0467 63.5175 33.82C62.9442 33.5867 62.4575 33.29 62.0575 32.93L62.4775 32.25C62.5308 32.1633 62.5942 32.0967 62.6675 32.05C62.7408 32.0033 62.8342 31.98 62.9475 31.98C63.0675 31.98 63.1942 32.0267 63.3275 32.12C63.4608 32.2133 63.6208 32.3167 63.8075 32.43C64.0008 32.5433 64.2342 32.6467 64.5075 32.74C64.7808 32.8333 65.1208 32.88 65.5275 32.88C65.8742 32.88 66.1775 32.8367 66.4375 32.75C66.6975 32.6567 66.9142 32.5333 67.0875 32.38C67.2608 32.2267 67.3875 32.05 67.4675 31.85C67.5542 31.65 67.5975 31.4367 67.5975 31.21C67.5975 30.93 67.5208 30.7 67.3675 30.52C67.2208 30.3333 67.0242 30.1767 66.7775 30.05C66.5308 29.9167 66.2475 29.8033 65.9275 29.71C65.6142 29.61 65.2908 29.5067 64.9575 29.4C64.6308 29.2933 64.3075 29.1733 63.9875 29.04C63.6742 28.9 63.3942 28.7267 63.1475 28.52C62.9008 28.3133 62.7008 28.06 62.5475 27.76C62.4008 27.4533 62.3275 27.0833 62.3275 26.65C62.3275 26.2633 62.4075 25.8933 62.5675 25.54C62.7275 25.18 62.9608 24.8667 63.2675 24.6C63.5742 24.3267 63.9508 24.11 64.3975 23.95C64.8442 23.79 65.3542 23.71 65.9275 23.71C66.5942 23.71 67.1908 23.8167 67.7175 24.03C68.2508 24.2367 68.7108 24.5233 69.0975 24.89L68.6975 25.54ZM77.4248 25.54C77.3448 25.6867 77.2215 25.76 77.0548 25.76C76.9548 25.76 76.8415 25.7233 76.7148 25.65C76.5882 25.5767 76.4315 25.4967 76.2448 25.41C76.0648 25.3167 75.8482 25.2333 75.5948 25.16C75.3415 25.08 75.0415 25.04 74.6948 25.04C74.3948 25.04 74.1248 25.08 73.8848 25.16C73.6448 25.2333 73.4382 25.3367 73.2648 25.47C73.0982 25.6033 72.9682 25.76 72.8748 25.94C72.7882 26.1133 72.7448 26.3033 72.7448 26.51C72.7448 26.77 72.8182 26.9867 72.9648 27.16C73.1182 27.3333 73.3182 27.4833 73.5648 27.61C73.8115 27.7367 74.0915 27.85 74.4048 27.95C74.7182 28.0433 75.0382 28.1467 75.3648 28.26C75.6982 28.3667 76.0215 28.4867 76.3348 28.62C76.6482 28.7533 76.9282 28.92 77.1748 29.12C77.4215 29.32 77.6182 29.5667 77.7648 29.86C77.9182 30.1467 77.9948 30.4933 77.9948 30.9C77.9948 31.3667 77.9115 31.8 77.7448 32.2C77.5782 32.5933 77.3315 32.9367 77.0048 33.23C76.6782 33.5167 76.2782 33.7433 75.8048 33.91C75.3315 34.0767 74.7848 34.16 74.1648 34.16C73.4582 34.16 72.8182 34.0467 72.2448 33.82C71.6715 33.5867 71.1848 33.29 70.7848 32.93L71.2048 32.25C71.2582 32.1633 71.3215 32.0967 71.3948 32.05C71.4682 32.0033 71.5615 31.98 71.6748 31.98C71.7948 31.98 71.9215 32.0267 72.0548 32.12C72.1882 32.2133 72.3482 32.3167 72.5348 32.43C72.7282 32.5433 72.9615 32.6467 73.2348 32.74C73.5082 32.8333 73.8482 32.88 74.2548 32.88C74.6015 32.88 74.9048 32.8367 75.1648 32.75C75.4248 32.6567 75.6415 32.5333 75.8148 32.38C75.9882 32.2267 76.1148 32.05 76.1948 31.85C76.2815 31.65 76.3248 31.4367 76.3248 31.21C76.3248 30.93 76.2482 30.7 76.0948 30.52C75.9482 30.3333 75.7515 30.1767 75.5048 30.05C75.2582 29.9167 74.9748 29.8033 74.6548 29.71C74.3415 29.61 74.0182 29.5067 73.6848 29.4C73.3582 29.2933 73.0348 29.1733 72.7148 29.04C72.4015 28.9 72.1215 28.7267 71.8748 28.52C71.6282 28.3133 71.4282 28.06 71.2748 27.76C71.1282 27.4533 71.0548 27.0833 71.0548 26.65C71.0548 26.2633 71.1348 25.8933 71.2948 25.54C71.4548 25.18 71.6882 24.8667 71.9948 24.6C72.3015 24.3267 72.6782 24.11 73.1248 23.95C73.5715 23.79 74.0815 23.71 74.6548 23.71C75.3215 23.71 75.9182 23.8167 76.4448 24.03C76.9782 24.2367 77.4382 24.5233 77.8248 24.89L77.4248 25.54ZM88.5822 23.87V34H87.5222C87.2689 34 87.1089 33.8767 87.0422 33.63L86.9022 32.54C86.4622 33.0267 85.9689 33.42 85.4222 33.72C84.8755 34.0133 84.2489 34.16 83.5422 34.16C82.9889 34.16 82.4989 34.07 82.0722 33.89C81.6522 33.7033 81.2989 33.4433 81.0122 33.11C80.7255 32.7767 80.5089 32.3733 80.3622 31.9C80.2222 31.4267 80.1522 30.9033 80.1522 30.33V23.87H81.9322V30.33C81.9322 31.0967 82.1055 31.69 82.4522 32.11C82.8055 32.53 83.3422 32.74 84.0622 32.74C84.5889 32.74 85.0789 32.6167 85.5322 32.37C85.9922 32.1167 86.4155 31.77 86.8022 31.33V23.87H88.5822ZM98.2595 27.83C98.2595 27.4167 98.1995 27.04 98.0795 26.7C97.9662 26.3533 97.7962 26.0567 97.5695 25.81C97.3495 25.5567 97.0795 25.3633 96.7595 25.23C96.4395 25.09 96.0762 25.02 95.6695 25.02C94.8162 25.02 94.1395 25.27 93.6395 25.77C93.1462 26.2633 92.8395 26.95 92.7195 27.83H98.2595ZM99.6995 32.58C99.4795 32.8467 99.2162 33.08 98.9095 33.28C98.6029 33.4733 98.2729 33.6333 97.9195 33.76C97.5729 33.8867 97.2129 33.98 96.8395 34.04C96.4662 34.1067 96.0962 34.14 95.7295 34.14C95.0295 34.14 94.3829 34.0233 93.7895 33.79C93.2029 33.55 92.6929 33.2033 92.2595 32.75C91.8329 32.29 91.4995 31.7233 91.2595 31.05C91.0195 30.3767 90.8995 29.6033 90.8995 28.73C90.8995 28.0233 91.0062 27.3633 91.2195 26.75C91.4395 26.1367 91.7529 25.6067 92.1595 25.16C92.5662 24.7067 93.0629 24.3533 93.6495 24.1C94.2362 23.84 94.8962 23.71 95.6295 23.71C96.2362 23.71 96.7962 23.8133 97.3095 24.02C97.8295 24.22 98.2762 24.5133 98.6495 24.9C99.0295 25.28 99.3262 25.7533 99.5395 26.32C99.7529 26.88 99.8595 27.52 99.8595 28.24C99.8595 28.52 99.8295 28.7067 99.7695 28.8C99.7095 28.8933 99.5962 28.94 99.4295 28.94H92.6595C92.6795 29.58 92.7662 30.1367 92.9195 30.61C93.0795 31.0833 93.2995 31.48 93.5795 31.8C93.8595 32.1133 94.1929 32.35 94.5795 32.51C94.9662 32.6633 95.3995 32.74 95.8795 32.74C96.3262 32.74 96.7095 32.69 97.0295 32.59C97.3562 32.4833 97.6362 32.37 97.8695 32.25C98.1029 32.13 98.2962 32.02 98.4495 31.92C98.6095 31.8133 98.7462 31.76 98.8595 31.76C99.0062 31.76 99.1195 31.8167 99.1995 31.93L99.6995 32.58ZM120.873 23.87L117.593 34H116.183C116.01 34 115.89 33.8867 115.823 33.66L113.583 26.79C113.53 26.6367 113.486 26.4833 113.453 26.33C113.42 26.17 113.386 26.0133 113.353 25.86C113.32 26.0133 113.286 26.17 113.253 26.33C113.22 26.4833 113.176 26.64 113.123 26.8L110.843 33.66C110.783 33.8867 110.65 34 110.443 34H109.103L105.823 23.87H107.223C107.363 23.87 107.48 23.9067 107.573 23.98C107.673 24.0533 107.74 24.14 107.773 24.24L109.713 30.76C109.826 31.24 109.916 31.6933 109.983 32.12C110.043 31.9 110.103 31.6767 110.163 31.45C110.23 31.2233 110.3 30.9933 110.373 30.76L112.513 24.2C112.546 24.1 112.603 24.0167 112.683 23.95C112.77 23.8833 112.873 23.85 112.993 23.85H113.773C113.906 23.85 114.016 23.8833 114.103 23.95C114.19 24.0167 114.25 24.1 114.283 24.2L116.373 30.76C116.446 30.9933 116.513 31.2233 116.573 31.45C116.633 31.6767 116.69 31.9 116.743 32.12C116.776 31.9 116.816 31.68 116.863 31.46C116.916 31.2333 116.973 31 117.033 30.76L119.013 24.24C119.046 24.1333 119.11 24.0467 119.203 23.98C119.296 23.9067 119.406 23.87 119.533 23.87H120.873ZM128.054 29.44C127.234 29.4667 126.534 29.5333 125.954 29.64C125.381 29.74 124.911 29.8733 124.544 30.04C124.184 30.2067 123.921 30.4033 123.754 30.63C123.594 30.8567 123.514 31.11 123.514 31.39C123.514 31.6567 123.557 31.8867 123.644 32.08C123.731 32.2733 123.847 32.4333 123.994 32.56C124.147 32.68 124.324 32.77 124.524 32.83C124.731 32.8833 124.951 32.91 125.184 32.91C125.497 32.91 125.784 32.88 126.044 32.82C126.304 32.7533 126.547 32.66 126.774 32.54C127.007 32.42 127.227 32.2767 127.434 32.11C127.647 31.9433 127.854 31.7533 128.054 31.54V29.44ZM122.304 25.3C122.864 24.76 123.467 24.3567 124.114 24.09C124.761 23.8233 125.477 23.69 126.264 23.69C126.831 23.69 127.334 23.7833 127.774 23.97C128.214 24.1567 128.584 24.4167 128.884 24.75C129.184 25.0833 129.411 25.4867 129.564 25.96C129.717 26.4333 129.794 26.9533 129.794 27.52V34H129.004C128.831 34 128.697 33.9733 128.604 33.92C128.511 33.86 128.437 33.7467 128.384 33.58L128.184 32.62C127.917 32.8667 127.657 33.0867 127.404 33.28C127.151 33.4667 126.884 33.6267 126.604 33.76C126.324 33.8867 126.024 33.9833 125.704 34.05C125.391 34.1233 125.041 34.16 124.654 34.16C124.261 34.16 123.891 34.1067 123.544 34C123.197 33.8867 122.894 33.72 122.634 33.5C122.381 33.28 122.177 33.0033 122.024 32.67C121.877 32.33 121.804 31.93 121.804 31.47C121.804 31.07 121.914 30.6867 122.134 30.32C122.354 29.9467 122.711 29.6167 123.204 29.33C123.697 29.0433 124.341 28.81 125.134 28.63C125.927 28.4433 126.901 28.3367 128.054 28.31V27.52C128.054 26.7333 127.884 26.14 127.544 25.74C127.204 25.3333 126.707 25.13 126.054 25.13C125.614 25.13 125.244 25.1867 124.944 25.3C124.651 25.4067 124.394 25.53 124.174 25.67C123.961 25.8033 123.774 25.9267 123.614 26.04C123.461 26.1467 123.307 26.2 123.154 26.2C123.034 26.2 122.931 26.17 122.844 26.11C122.757 26.0433 122.684 25.9633 122.624 25.87L122.304 25.3ZM138.48 25.54C138.4 25.6867 138.277 25.76 138.11 25.76C138.01 25.76 137.897 25.7233 137.77 25.65C137.644 25.5767 137.487 25.4967 137.3 25.41C137.12 25.3167 136.904 25.2333 136.65 25.16C136.397 25.08 136.097 25.04 135.75 25.04C135.45 25.04 135.18 25.08 134.94 25.16C134.7 25.2333 134.494 25.3367 134.32 25.47C134.154 25.6033 134.024 25.76 133.93 25.94C133.844 26.1133 133.8 26.3033 133.8 26.51C133.8 26.77 133.874 26.9867 134.02 27.16C134.174 27.3333 134.374 27.4833 134.62 27.61C134.867 27.7367 135.147 27.85 135.46 27.95C135.774 28.0433 136.094 28.1467 136.42 28.26C136.754 28.3667 137.077 28.4867 137.39 28.62C137.704 28.7533 137.984 28.92 138.23 29.12C138.477 29.32 138.674 29.5667 138.82 29.86C138.974 30.1467 139.05 30.4933 139.05 30.9C139.05 31.3667 138.967 31.8 138.8 32.2C138.634 32.5933 138.387 32.9367 138.06 33.23C137.734 33.5167 137.334 33.7433 136.86 33.91C136.387 34.0767 135.84 34.16 135.22 34.16C134.514 34.16 133.874 34.0467 133.3 33.82C132.727 33.5867 132.24 33.29 131.84 32.93L132.26 32.25C132.314 32.1633 132.377 32.0967 132.45 32.05C132.524 32.0033 132.617 31.98 132.73 31.98C132.85 31.98 132.977 32.0267 133.11 32.12C133.244 32.2133 133.404 32.3167 133.59 32.43C133.784 32.5433 134.017 32.6467 134.29 32.74C134.564 32.8333 134.904 32.88 135.31 32.88C135.657 32.88 135.96 32.8367 136.22 32.75C136.48 32.6567 136.697 32.5333 136.87 32.38C137.044 32.2267 137.17 32.05 137.25 31.85C137.337 31.65 137.38 31.4367 137.38 31.21C137.38 30.93 137.304 30.7 137.15 30.52C137.004 30.3333 136.807 30.1767 136.56 30.05C136.314 29.9167 136.03 29.8033 135.71 29.71C135.397 29.61 135.074 29.5067 134.74 29.4C134.414 29.2933 134.09 29.1733 133.77 29.04C133.457 28.9 133.177 28.7267 132.93 28.52C132.684 28.3133 132.484 28.06 132.33 27.76C132.184 27.4533 132.11 27.0833 132.11 26.65C132.11 26.2633 132.19 25.8933 132.35 25.54C132.51 25.18 132.744 24.8667 133.05 24.6C133.357 24.3267 133.734 24.11 134.18 23.95C134.627 23.79 135.137 23.71 135.71 23.71C136.377 23.71 136.974 23.8167 137.5 24.03C138.034 24.2367 138.494 24.5233 138.88 24.89L138.48 25.54ZM160.06 23.87L156.78 34H155.37C155.196 34 155.076 33.8867 155.01 33.66L152.77 26.79C152.716 26.6367 152.673 26.4833 152.64 26.33C152.606 26.17 152.573 26.0133 152.54 25.86C152.506 26.0133 152.473 26.17 152.44 26.33C152.406 26.4833 152.363 26.64 152.31 26.8L150.03 33.66C149.97 33.8867 149.836 34 149.63 34H148.29L145.01 23.87H146.41C146.55 23.87 146.666 23.9067 146.76 23.98C146.86 24.0533 146.926 24.14 146.96 24.24L148.9 30.76C149.013 31.24 149.103 31.6933 149.17 32.12C149.23 31.9 149.29 31.6767 149.35 31.45C149.416 31.2233 149.486 30.9933 149.56 30.76L151.7 24.2C151.733 24.1 151.79 24.0167 151.87 23.95C151.956 23.8833 152.06 23.85 152.18 23.85H152.96C153.093 23.85 153.203 23.8833 153.29 23.95C153.376 24.0167 153.436 24.1 153.47 24.2L155.56 30.76C155.633 30.9933 155.7 31.2233 155.76 31.45C155.82 31.6767 155.876 31.9 155.93 32.12C155.963 31.9 156.003 31.68 156.05 31.46C156.103 31.2333 156.16 31 156.22 30.76L158.2 24.24C158.233 24.1333 158.296 24.0467 158.39 23.98C158.483 23.9067 158.593 23.87 158.72 23.87H160.06ZM163.748 23.87V34H161.968V23.87H163.748ZM164.128 20.69C164.128 20.8633 164.091 21.0267 164.018 21.18C163.951 21.3267 163.858 21.46 163.738 21.58C163.624 21.6933 163.488 21.7833 163.328 21.85C163.174 21.9167 163.011 21.95 162.838 21.95C162.664 21.95 162.501 21.9167 162.348 21.85C162.201 21.7833 162.071 21.6933 161.958 21.58C161.844 21.46 161.754 21.3267 161.688 21.18C161.621 21.0267 161.588 20.8633 161.588 20.69C161.588 20.5167 161.621 20.3533 161.688 20.2C161.754 20.04 161.844 19.9033 161.958 19.79C162.071 19.67 162.201 19.5767 162.348 19.51C162.501 19.4433 162.664 19.41 162.838 19.41C163.011 19.41 163.174 19.4433 163.328 19.51C163.488 19.5767 163.624 19.67 163.738 19.79C163.858 19.9033 163.951 20.04 164.018 20.2C164.091 20.3533 164.128 20.5167 164.128 20.69ZM169.858 34.16C169.058 34.16 168.441 33.9367 168.008 33.49C167.581 33.0433 167.368 32.4 167.368 31.56V25.36H166.148C166.041 25.36 165.951 25.33 165.878 25.27C165.804 25.2033 165.768 25.1033 165.768 24.97V24.26L167.428 24.05L167.838 20.92C167.858 20.82 167.901 20.74 167.968 20.68C168.041 20.6133 168.134 20.58 168.248 20.58H169.148V24.07H172.078V25.36H169.148V31.44C169.148 31.8667 169.251 32.1833 169.458 32.39C169.664 32.5967 169.931 32.7 170.258 32.7C170.444 32.7 170.604 32.6767 170.738 32.63C170.878 32.5767 170.998 32.52 171.098 32.46C171.198 32.4 171.281 32.3467 171.348 32.3C171.421 32.2467 171.484 32.22 171.538 32.22C171.631 32.22 171.714 32.2767 171.788 32.39L172.308 33.24C172.001 33.5267 171.631 33.7533 171.198 33.92C170.764 34.08 170.318 34.16 169.858 34.16ZM175.78 25.22C176.214 24.76 176.694 24.3933 177.22 24.12C177.747 23.8467 178.354 23.71 179.04 23.71C179.594 23.71 180.08 23.8033 180.5 23.99C180.927 24.17 181.28 24.43 181.56 24.77C181.847 25.1033 182.064 25.5067 182.21 25.98C182.357 26.4533 182.43 26.9767 182.43 27.55V34H180.64V27.55C180.64 26.7833 180.464 26.19 180.11 25.77C179.764 25.3433 179.234 25.13 178.52 25.13C177.994 25.13 177.5 25.2567 177.04 25.51C176.587 25.7633 176.167 26.1067 175.78 26.54V34H173.99V19.27H175.78V25.22ZM191.818 26.28C191.484 25.8333 191.124 25.5233 190.738 25.35C190.351 25.17 189.918 25.08 189.438 25.08C188.498 25.08 187.774 25.4167 187.268 26.09C186.761 26.7633 186.508 27.7233 186.508 28.97C186.508 29.63 186.564 30.1967 186.678 30.67C186.791 31.1367 186.958 31.5233 187.178 31.83C187.398 32.13 187.668 32.35 187.988 32.49C188.308 32.63 188.671 32.7 189.078 32.7C189.664 32.7 190.174 32.5667 190.608 32.3C191.048 32.0333 191.451 31.6567 191.818 31.17V26.28ZM193.598 19.27V34H192.538C192.284 34 192.124 33.8767 192.058 33.63L191.898 32.4C191.464 32.92 190.971 33.34 190.418 33.66C189.864 33.98 189.224 34.14 188.498 34.14C187.918 34.14 187.391 34.03 186.918 33.81C186.444 33.5833 186.041 33.2533 185.708 32.82C185.374 32.3867 185.118 31.8467 184.938 31.2C184.758 30.5533 184.668 29.81 184.668 28.97C184.668 28.2233 184.768 27.53 184.968 26.89C185.168 26.2433 185.454 25.6833 185.828 25.21C186.201 24.7367 186.658 24.3667 187.198 24.1C187.744 23.8267 188.358 23.69 189.038 23.69C189.658 23.69 190.188 23.7967 190.628 24.01C191.074 24.2167 191.471 24.5067 191.818 24.88V19.27H193.598ZM198.174 25.9C198.494 25.2067 198.888 24.6667 199.354 24.28C199.821 23.8867 200.391 23.69 201.064 23.69C201.278 23.69 201.481 23.7133 201.674 23.76C201.874 23.8067 202.051 23.88 202.204 23.98L202.074 25.31C202.034 25.4767 201.934 25.56 201.774 25.56C201.681 25.56 201.544 25.54 201.364 25.5C201.184 25.46 200.981 25.44 200.754 25.44C200.434 25.44 200.148 25.4867 199.894 25.58C199.648 25.6733 199.424 25.8133 199.224 26C199.031 26.18 198.854 26.4067 198.694 26.68C198.541 26.9467 198.401 27.2533 198.274 27.6V34H196.484V23.87H197.504C197.698 23.87 197.831 23.9067 197.904 23.98C197.978 24.0533 198.028 24.18 198.054 24.36L198.174 25.9ZM209.178 29.44C208.358 29.4667 207.658 29.5333 207.078 29.64C206.505 29.74 206.035 29.8733 205.668 30.04C205.308 30.2067 205.045 30.4033 204.878 30.63C204.718 30.8567 204.638 31.11 204.638 31.39C204.638 31.6567 204.681 31.8867 204.768 32.08C204.855 32.2733 204.971 32.4333 205.118 32.56C205.271 32.68 205.448 32.77 205.648 32.83C205.855 32.8833 206.075 32.91 206.308 32.91C206.621 32.91 206.908 32.88 207.168 32.82C207.428 32.7533 207.671 32.66 207.898 32.54C208.131 32.42 208.351 32.2767 208.558 32.11C208.771 31.9433 208.978 31.7533 209.178 31.54V29.44ZM203.428 25.3C203.988 24.76 204.591 24.3567 205.238 24.09C205.885 23.8233 206.601 23.69 207.388 23.69C207.955 23.69 208.458 23.7833 208.898 23.97C209.338 24.1567 209.708 24.4167 210.008 24.75C210.308 25.0833 210.535 25.4867 210.688 25.96C210.841 26.4333 210.918 26.9533 210.918 27.52V34H210.128C209.955 34 209.821 33.9733 209.728 33.92C209.635 33.86 209.561 33.7467 209.508 33.58L209.308 32.62C209.041 32.8667 208.781 33.0867 208.528 33.28C208.275 33.4667 208.008 33.6267 207.728 33.76C207.448 33.8867 207.148 33.9833 206.828 34.05C206.515 34.1233 206.165 34.16 205.778 34.16C205.385 34.16 205.015 34.1067 204.668 34C204.321 33.8867 204.018 33.72 203.758 33.5C203.505 33.28 203.301 33.0033 203.148 32.67C203.001 32.33 202.928 31.93 202.928 31.47C202.928 31.07 203.038 30.6867 203.258 30.32C203.478 29.9467 203.835 29.6167 204.328 29.33C204.821 29.0433 205.465 28.81 206.258 28.63C207.051 28.4433 208.025 28.3367 209.178 28.31V27.52C209.178 26.7333 209.008 26.14 208.668 25.74C208.328 25.3333 207.831 25.13 207.178 25.13C206.738 25.13 206.368 25.1867 206.068 25.3C205.775 25.4067 205.518 25.53 205.298 25.67C205.085 25.8033 204.898 25.9267 204.738 26.04C204.585 26.1467 204.431 26.2 204.278 26.2C204.158 26.2 204.055 26.17 203.968 26.11C203.881 26.0433 203.808 25.9633 203.748 25.87L203.428 25.3ZM227.616 23.87L224.336 34H222.926C222.753 34 222.633 33.8867 222.566 33.66L220.326 26.79C220.273 26.6367 220.229 26.4833 220.196 26.33C220.163 26.17 220.129 26.0133 220.096 25.86C220.063 26.0133 220.029 26.17 219.996 26.33C219.963 26.4833 219.919 26.64 219.866 26.8L217.586 33.66C217.526 33.8867 217.393 34 217.186 34H215.846L212.566 23.87H213.966C214.106 23.87 214.223 23.9067 214.316 23.98C214.416 24.0533 214.483 24.14 214.516 24.24L216.456 30.76C216.569 31.24 216.659 31.6933 216.726 32.12C216.786 31.9 216.846 31.6767 216.906 31.45C216.973 31.2233 217.043 30.9933 217.116 30.76L219.256 24.2C219.289 24.1 219.346 24.0167 219.426 23.95C219.513 23.8833 219.616 23.85 219.736 23.85H220.516C220.649 23.85 220.759 23.8833 220.846 23.95C220.933 24.0167 220.993 24.1 221.026 24.2L223.116 30.76C223.189 30.9933 223.256 31.2233 223.316 31.45C223.376 31.6767 223.433 31.9 223.486 32.12C223.519 31.9 223.559 31.68 223.606 31.46C223.659 31.2333 223.716 31 223.776 30.76L225.756 24.24C225.789 24.1333 225.853 24.0467 225.946 23.98C226.039 23.9067 226.149 23.87 226.276 23.87H227.616ZM231.104 25.34C231.324 25.0933 231.557 24.87 231.804 24.67C232.051 24.47 232.311 24.3 232.584 24.16C232.864 24.0133 233.157 23.9033 233.464 23.83C233.777 23.75 234.114 23.71 234.474 23.71C235.027 23.71 235.514 23.8033 235.934 23.99C236.361 24.17 236.714 24.43 236.994 24.77C237.281 25.1033 237.497 25.5067 237.644 25.98C237.791 26.4533 237.864 26.9767 237.864 27.55V34H236.074V27.55C236.074 26.7833 235.897 26.19 235.544 25.77C235.197 25.3433 234.667 25.13 233.954 25.13C233.427 25.13 232.934 25.2567 232.474 25.51C232.021 25.7633 231.601 26.1067 231.214 26.54V34H229.424V23.87H230.494C230.747 23.87 230.904 23.9933 230.964 24.24L231.104 25.34Z" fill="#FC5A5A"/>
<defs>
<clipPath id="clip0_1159_26243">
<rect width="24" height="24" fill="white" transform="translate(20 14)"/>
</clipPath>
</defs>
</svg>
