<svg width="14" height="15" viewBox="0 0 14 15" xmlns="http://www.w3.org/2000/svg">
    <g fill="none" fill-rule="evenodd">
        <path d="M6.777.5c.543 0 .999.23 1.282.646.228.334.337.764.337 1.315 0 .945-.423 2.429-1.082 4.018.318.72.69 1.434 1.084 2.083.918.007 2.18.09 3.21.436 1.48.496 1.792 1.312 1.792 1.91 0 .861-.699 1.791-2.234 1.791-1.135 0-2.4-1.151-3.492-2.728a16.89 16.89 0 0 0-2.246.22c-1.272 2.081-2.714 3.71-3.813 3.71C.407 13.9 0 12.706 0 12.161c0-1.713 2.167-2.726 4.56-3.22A27.41 27.41 0 0 0 5.829 6.51c-.557-1.381-.9-2.732-.9-3.735 0-.636.13-1.15.388-1.535C5.638.762 6.158.5 6.777.5z" fill="red"/>
        <g fill="#FFF">
            <path d="M6.775 1.898c-.217 0-.265.074-.298.123-.056.083-.15.292-.15.754 0 .512.101 1.111.278 1.752.262-.818.412-1.562.391-2.152-.016-.476-.13-.477-.22-.477zM9.404 10.004c.643.788 1.272 1.295 1.76 1.295.576 0 .834-.197.834-.393.001-.184-.327-.413-.836-.584-.462-.155-1.066-.262-1.758-.318zM3.447 10.674c-1.265.427-2.049.982-2.049 1.486.001 0 .057.34.215.34.38-.027 1.072-.752 1.834-1.826z"/>
        </g>
    </g>
</svg>
