<svg xmlns="http://www.w3.org/2000/svg" width="432" height="50" viewBox="0 0 432 50">
    <defs>
        <linearGradient id="jkdvpvjyma" x1="81.456%" x2="18.247%" y1="50%" y2="50%">
            <stop offset="0%" stop-color="#00A25B"/>
            <stop offset="49.706%" stop-color="#4C96FF"/>
            <stop offset="100%" stop-color="#FC5A5A"/>
        </linearGradient>
    </defs>
    <g fill="none" fill-rule="evenodd">
        <g fill="url(#jkdvpvjyma)" transform="translate(-200 -1172)">
            <g>
                <g>
                    <g>
                        <path d="M4.34 0c.757 0 1.37.613 1.37 1.369V48.63c0 .756-.613 1.369-1.37 1.369H1.37C.613 50 0 49.387 0 48.631V1.37C0 .613.613 0 1.369 0H4.34zm426.291 0c.756 0 1.369.613 1.369 1.369V48.63c0 .756-.613 1.369-1.369 1.369h-2.972c-.756 0-1.368-.613-1.368-1.369V1.37c0-.756.612-1.369 1.368-1.369zM19.565.676c.756 0 1.369.612 1.369 1.368v45.912c0 .756-.613 1.368-1.369 1.368h-2.972c-.756 0-1.368-.612-1.368-1.368V2.044c0-.756.612-1.368 1.368-1.368h2.972zm395.842 0c.756 0 1.368.612 1.368 1.368v45.912c0 .756-.612 1.368-1.368 1.368h-2.972c-.756 0-1.369-.612-1.369-1.368V2.044c0-.756.613-1.368 1.369-1.368zM34.79 1.35c.756 0 1.369.613 1.369 1.369v44.56c0 .756-.613 1.369-1.369 1.369h-2.972c-.756 0-1.369-.613-1.369-1.369V2.72c0-.756.613-1.369 1.369-1.369h2.972zm365.392 0c.756 0 1.369.613 1.369 1.369v44.56c0 .756-.613 1.369-1.369 1.369h-2.972c-.756 0-1.369-.613-1.369-1.369V2.72c0-.756.613-1.369 1.369-1.369zm-350.167.676c.756 0 1.368.613 1.368 1.369v43.208c0 .756-.612 1.369-1.368 1.369h-2.972c-.756 0-1.369-.613-1.369-1.369V3.396c0-.756.613-1.369 1.369-1.369h2.972zm334.942 0c.756 0 1.369.613 1.369 1.369v43.208c0 .756-.613 1.369-1.369 1.369h-2.972c-.756 0-1.368-.613-1.368-1.369V3.396c0-.756.612-1.369 1.368-1.369zM65.24 2.703c.756 0 1.369.612 1.369 1.368V45.93c0 .756-.613 1.368-1.369 1.368h-2.972c-.756 0-1.368-.612-1.368-1.368V4.07c0-.756.612-1.368 1.368-1.368h2.972zm304.494 0c.756 0 1.368.612 1.368 1.368V45.93c0 .756-.612 1.368-1.368 1.368h-2.972c-.756 0-1.369-.612-1.369-1.368V4.07c0-.756.613-1.368 1.369-1.368zm-289.269.675c.756 0 1.369.613 1.369 1.369v40.506c0 .756-.613 1.369-1.369 1.369h-2.972c-.756 0-1.369-.613-1.369-1.369V4.747c0-.756.613-1.369 1.369-1.369h2.972zm274.044 0c.756 0 1.369.613 1.369 1.369v40.506c0 .756-.613 1.369-1.369 1.369h-2.972c-.756 0-1.369-.613-1.369-1.369V4.747c0-.756.613-1.369 1.369-1.369zm-258.82.676c.757 0 1.37.613 1.37 1.369v39.154c0 .756-.613 1.369-1.37 1.369h-2.971c-.756 0-1.369-.613-1.369-1.369V5.423c0-.756.613-1.369 1.369-1.369h2.972zm243.595 0c.756 0 1.369.613 1.369 1.369v39.154c0 .756-.613 1.369-1.369 1.369h-2.972c-.756 0-1.368-.613-1.368-1.369V5.423c0-.756.612-1.369 1.368-1.369zm-228.37.676c.756 0 1.369.612 1.369 1.368v37.804c0 .756-.613 1.368-1.369 1.368h-2.972c-.756 0-1.368-.612-1.368-1.368V6.098c0-.756.612-1.368 1.368-1.368h2.972zm213.146 0c.756 0 1.368.612 1.368 1.368v37.804c0 .756-.612 1.368-1.368 1.368h-2.972c-.756 0-1.369-.612-1.369-1.368V6.098c0-.756.613-1.368 1.369-1.368zm-197.92.675c.755 0 1.368.613 1.368 1.369v36.452c0 .756-.613 1.369-1.369 1.369h-2.972c-.756 0-1.369-.613-1.369-1.369V6.774c0-.756.613-1.369 1.369-1.369h2.972zm182.695 0c.756 0 1.369.613 1.369 1.369v36.452c0 .756-.613 1.369-1.369 1.369h-2.972c-.756 0-1.369-.613-1.369-1.369V6.774c0-.756.613-1.369 1.369-1.369zm-167.471.676c.756 0 1.368.613 1.368 1.369v35.1c0 .756-.612 1.369-1.368 1.369h-2.972c-.756 0-1.369-.613-1.369-1.369V7.45c0-.756.613-1.369 1.369-1.369h2.972zm152.246 0c.756 0 1.369.613 1.369 1.369v35.1c0 .756-.613 1.369-1.369 1.369h-2.972c-.756 0-1.368-.613-1.368-1.369V7.45c0-.756.612-1.369 1.368-1.369zm-137.022.676c.756 0 1.369.612 1.369 1.368v33.75c0 .756-.613 1.368-1.369 1.368h-2.972c-.756 0-1.368-.612-1.368-1.368V8.125c0-.756.612-1.368 1.368-1.368h2.972zm121.798 0c.756 0 1.368.612 1.368 1.368v33.75c0 .756-.612 1.368-1.368 1.368h-2.972c-.756 0-1.369-.612-1.369-1.368V8.125c0-.756.613-1.368 1.369-1.368zm-106.573.675c.756 0 1.369.613 1.369 1.369v32.398c0 .756-.613 1.369-1.369 1.369h-2.972c-.756 0-1.369-.613-1.369-1.369V8.801c0-.756.613-1.369 1.369-1.369h2.972zm91.348 0c.756 0 1.369.613 1.369 1.369v32.398c0 .756-.613 1.369-1.369 1.369h-2.972c-.756 0-1.369-.613-1.369-1.369V8.801c0-.756.613-1.369 1.369-1.369zm-76.123.676c.756 0 1.368.613 1.368 1.369v31.046c0 .756-.612 1.369-1.368 1.369h-2.972c-.756 0-1.369-.613-1.369-1.369V9.477c0-.756.613-1.369 1.369-1.369h2.972zm60.898 0c.756 0 1.369.613 1.369 1.369v31.046c0 .756-.613 1.369-1.369 1.369h-2.972c-.756 0-1.368-.613-1.368-1.369V9.477c0-.756.612-1.369 1.368-1.369zm-45.674.676c.756 0 1.369.613 1.369 1.368v29.696c0 .755-.613 1.368-1.369 1.368h-2.972c-.756 0-1.368-.613-1.368-1.368V10.152c0-.755.612-1.368 1.368-1.368h2.972zm30.45 0c.756 0 1.368.613 1.368 1.368v29.696c0 .755-.612 1.368-1.368 1.368h-2.972c-.756 0-1.369-.613-1.369-1.368V10.152c0-.755.613-1.368 1.369-1.368zm-15.225.675c.756 0 1.369.613 1.369 1.369v28.344c0 .756-.613 1.369-1.369 1.369h-2.972c-.756 0-1.369-.613-1.369-1.369V10.828c0-.756.613-1.369 1.369-1.369h2.972z" transform="translate(80 933) translate(29 22) matrix(-1 0 0 1 523 217)"/>
                    </g>
                </g>
            </g>
        </g>
    </g>
</svg>
