<svg xmlns="http://www.w3.org/2000/svg" width="22" height="23" viewBox="0 0 22 23">
    <g fill="none" fill-rule="evenodd" stroke-linecap="round" stroke-linejoin="round">
        <g stroke="#FC5A5A" stroke-width="1.426">
            <g>
                <g>
                    <path d="M21.45 21.45L.061 21.45M16.46 15.746h2.851c.394 0 .713.32.713.713v4.991h-4.278v-4.99c0-.394.32-.714.713-.714zM9.33 11.469h2.851c.394 0 .713.319.713.712v9.269H8.617v-9.269c0-.393.319-.712.713-.712zM2.2 8.617h2.852c.394 0 .713.319.713.713v12.12H1.487V9.33c0-.394.32-.713.713-.713zM3.626.061L18.9 6.998M17.765 3.974L18.9 6.998 15.877 8.133" transform="translate(-100 -532) translate(80 508) translate(20 24)"/>
                </g>
            </g>
        </g>
    </g>
</svg>
