<svg width="20" height="5" viewBox="0 0 20 5" fill="none" xmlns="http://www.w3.org/2000/svg">
<path d="M-4.108 2.98677L-2.32552 2.2409L-2.44508 3.28464L-1.56072 2.90573L-1.1484 3.26415L-0.108049 2.70579L0.304261 3.06421L1.81615 2.04668L2.17107 2.3552L2.86874 2.96169L3.65624 2.05577L4.49218 2.78245L5.65982 3.79745L6.40305 2.94247L7.24395 1.97512L7.65384 2.33144L8.10255 2.72149L7.68528 4.0571L9.04082 3.53712L9.42514 3.8712L9.89859 4.28277L10.6142 3.81021L11.9272 3.14432L12.1661 3.35199L12.5528 3.68809L14.0311 2.64334L14.6886 3.21486L15.8666 3.13526L16.5221 2.3812L16.3187 3.52826L17.6799 3.3877L19.4798 1.31718L18.4294 4.03919L20.6628 2.34557L21.6999 1.82839L22.139 2.2101L23.073 1.50523L24.1074 1.01376" stroke="#FF9633" stroke-linecap="round" stroke-linejoin="round"/>
</svg>
