<?xml version="1.0" encoding="UTF-8"?>
<svg width="7px" height="11px" viewBox="0 0 7 11" version="1.1" xmlns="http://www.w3.org/2000/svg" xmlns:xlink="http://www.w3.org/1999/xlink">
    <title>Shape</title>
    <g id="New-Portfolio" stroke="none" stroke-width="1" fill="none" fill-rule="evenodd" opacity="0.199999988">
        <g id="investors-version-2" transform="translate(-1280.000000, -1269.000000)" fill="#000000" fill-rule="nonzero">
            <g id="Pagination-Copy-3" transform="translate(998.000000, 1258.000000)">
                <g id="Pagination" transform="translate(0.000000, -0.000000)">
                    <g id="btn_Go-to-page" transform="translate(237.000000, 0.000000)">
                        <g id="icons8-sort" transform="translate(44.999697, 11.000000)">
                            <path d="M3.50030323,0 C3.36436573,0 3.22807673,0.0512969 3.12432673,0.1542969 L0.156553227,3.0996094 C-0.177946773,3.4316094 0.0590297774,4 0.532529777,4 L6.46807673,4 C6.94157673,4 7.17905323,3.4316094 6.84405323,3.0996094 L3.87627973,0.1542969 C3.77227973,0.0512969 3.63624073,0 3.50030323,0 Z M0.532529777,7 C0.0590297774,7 -0.177470223,7.5683905 0.157529777,7.9003905 L3.12432673,10.845703 C3.33182673,11.051703 3.66877973,11.051703 3.87627973,10.845703 L6.84307673,7.9003905 C7.17757673,7.5683905 6.94107673,7 6.46807673,7 L0.532529777,7 Z" id="Shape"></path>
                        </g>
                    </g>
                </g>
            </g>
        </g>
    </g>
</svg>