<svg width="36" height="36" viewBox="0 0 36 36" xmlns="http://www.w3.org/2000/svg">
    <g fill="none" fill-rule="evenodd">
        <circle fill="#F3F4FA" cx="18" cy="18" r="18"/>
        <path d="m19.87 14.233-4.11 1.634-4.108-1.634v-5.6L15.761 7l4.109 1.633v5.6zm4.565 3.5-2.492 1.35-.247-.883-5.935-1.4-5.935 1.4L8 24.733h11.87v.794L24.435 28 29 25.527v-5.32l-4.565-2.474z"/>
        <path d="M12 8.225 15.21 9.8h4.28V8.633L15.21 7 12 8.225zm17 11.982v5.32L24.245 28l-4.755-2.473 9.51-5.32z" fill="#006AFF" fill-rule="nonzero" opacity=".2"/>
        <path d="M20.078 13.934 15.55 15.5l-4.527-1.566V8.566L15.55 7l4.527 1.566v5.368zm-6.036-2.013v-.447m3.018.447v-.447m3.94 6.04-5.45-1.12-6.538 1.343L7 24h11.066" stroke="#006AFF" stroke-linecap="round" stroke-linejoin="round"/>
        <path d="m17.676 17.513-2.389 3.737-2.39-3.737 2.39-.538 2.389.538zm7.837 3.737h-1.948l-.487.95.487.95h1.948l.487.95-.487.95h-1.948m.974-3.8v-.95m0 5.7v-.95" stroke="#00A25B" stroke-linecap="round" stroke-linejoin="round"/>
        <path stroke="#006AFF" stroke-linecap="round" stroke-linejoin="round" d="M19 20.41 24 18l5 2.41v5.18L24 28l-5-2.41z"/>
    </g>
</svg>
